<svg width="256" height="256" viewBox="0 0 256 256" fill="none" xmlns="http://www.w3.org/2000/svg">
<path d="M62.3689 24.6003C56.5931 23.7165 51.2042 27.6174 50.3327 33.3133C49.4611 39.0091 53.4368 44.343 59.2126 45.2268C64.9884 46.1106 70.3772 42.2097 71.2488 36.5139C72.1204 30.818 68.1447 25.4842 62.3689 24.6003Z" fill="#1B1B1A"/>
<path d="M108.359 149.364C115.41 149.372 122.48 149.371 129.568 149.36C130.113 149.36 130.996 149.375 132.218 149.403C145.143 149.702 156.312 140.48 157.406 127.374C158.402 115.436 150.402 104.886 138.786 102.023C128.597 99.5126 117.816 104.185 112.293 112.795C109.59 117.006 108.463 121.844 108.457 126.905C108.45 135 108.441 141.458 108.428 146.28C108.425 147.305 108.403 148.333 108.359 149.364L75.2748 149.422C75.1648 149.422 75.0586 149.383 74.9759 149.31C74.8932 149.238 74.8397 149.137 74.8255 149.028C74.4054 145.821 73.5066 143.183 70.755 141.382C68.4886 139.898 65.3593 139.041 62.7347 139.891C56.5509 141.897 50.2011 143.724 44.089 145.892C43.835 145.984 41.8193 146.663 38.0419 147.931C35.3023 148.849 33.2497 149.352 31.8842 149.439C26.9845 149.751 23.0465 147.765 20.0703 143.48C19.8597 143.176 19.4852 142.377 18.9468 141.083C17.6638 138.006 17.6703 134.935 19.0543 131.877C20.9321 127.716 24.0148 125.093 28.3023 124.01C29.2423 123.773 30.4927 123.679 32.0536 123.727C42.476 124.054 51.928 124.363 60.4097 124.651C61.7535 124.697 63.0896 124.535 64.4182 124.166C68.4409 123.053 71.4703 120.825 73.5066 117.484C75.7861 113.749 76.2517 109.161 74.223 105.319C72.6535 102.349 69.4721 99.7763 66.5804 98.0961C65.1433 97.2603 63.3849 96.4679 61.3052 95.7189C55.4763 93.6132 49.9949 91.5747 44.8607 89.6035C42.0299 88.5159 39.9436 86.7195 38.602 84.2143C36.0133 79.3819 36.5375 73.9373 40.1683 69.8864C42.7246 67.0306 47.0555 65.4774 50.9012 66.0244C54.138 66.4836 56.4891 67.8512 59.1853 70.1828C64.5908 74.8556 70.0159 80.0234 73.8388 83.5012C75.9749 85.4452 79.3973 88.0112 82.3508 88.2229C84.881 88.402 87.2744 87.7572 89.0914 85.9825C91.2471 83.8789 91.8398 80.857 90.3191 78.1673C89.4811 76.6824 88.3631 75.2985 86.9651 74.0155C83.9367 71.2302 81.2676 68.8813 78.9577 66.9688C78.567 66.6431 78.0916 66.1189 77.5315 65.396C75.6981 63.0319 75.6916 59.7723 77.2905 57.4277C78.0785 56.2685 79.2443 55.4468 80.7878 54.9627C83.6729 54.0607 86.812 55.7605 88.108 58.3395C89.5734 61.255 90.5145 63.1013 90.9313 63.8785C92.7396 67.2521 94.8258 70.2067 97.1899 72.7423C97.7435 73.3349 99.5703 74.6765 100.651 74.911C102.11 75.2279 103.405 75.1291 104.536 74.6146C110.293 71.9987 114.065 70.2197 115.852 69.2775C120.443 66.8548 123.625 62.4164 123.836 57.1379C123.906 55.4055 123.886 53.8838 123.778 52.5725C123.617 50.6383 123.634 49.1849 123.827 48.2123C124.501 44.816 126.067 42.2174 129.131 40.4883C132.71 38.4694 137.249 38.7722 140.551 41.1168C142.919 42.797 144.335 45.2393 144.749 48.0983C145.081 50.4071 144.68 52.947 144.482 55.6758C144.303 58.1702 145.055 61.407 146.11 63.25C149.252 68.7304 155.381 72.6348 161.786 70.6777C164.473 69.8571 166.672 68.1041 168.383 65.4188C169.883 63.072 170.973 61.2485 171.652 59.9481C175.636 52.3392 179.991 44.0518 184.717 35.086C185.474 33.6489 186.62 32.1369 188.152 30.55C189.824 28.8176 191.957 27.527 194.551 26.6782C203.294 23.8191 212.581 29.1497 213.314 38.6126C213.659 43.0575 211.683 47.1182 208.322 50.2247C205.154 53.1522 202.255 55.9103 200.197 57.7306C194.484 62.7866 188.922 67.9424 183.512 73.1981C182.392 74.2879 181.443 75.3484 180.666 76.3796C177.188 80.997 177.807 85.7936 180.637 90.6456C182.577 93.9735 185.007 97.3373 188.517 98.9818C191.465 100.36 194.512 100.501 197.658 99.4051C200.282 98.489 202.988 97.282 205.776 95.784C209.34 93.8672 214.517 91.0385 221.305 87.298C222.751 86.5002 224.825 85.5527 226.509 85.4517C229.161 85.2954 231.466 85.9695 233.422 87.4739C237.297 90.4502 238.521 95.6896 236.235 100.118C234.33 103.804 231.006 105.012 226.919 105.67C219.46 106.875 213.363 108.002 208.628 109.05C205.303 109.786 202.438 110.581 199.598 112.408C194.724 115.54 192.506 120.588 192.819 126.335C192.897 127.789 192.711 130.014 192.262 133.007C191.396 138.762 189.704 144.338 187.188 149.735C186.218 151.816 184.915 153.844 184.235 155.665C182.353 160.712 184.463 165.417 188.657 168.475C191.015 170.192 193.345 171.767 195.648 173.2C200.624 176.296 205.287 179.343 209.638 182.341C212.933 184.609 214.849 187.589 215.385 191.279C215.958 195.245 214.701 199.036 211.966 201.846C207.417 206.522 199.748 207.167 194.512 203.074C193.837 202.546 192.903 201.53 191.711 200.026C190.348 198.304 189.47 197.169 189.077 196.62C180.947 185.231 176.856 179.5 176.804 179.426C176.48 178.977 176.035 178.42 175.469 177.756C174.24 176.323 172.653 175.275 170.708 174.613C167.761 173.614 165.192 174.385 162.496 175.834C155.286 179.713 147.712 182.572 139.776 183.366C138.348 183.51 136.011 183.577 132.765 183.568C125.51 183.547 117.476 183.56 108.662 183.607C108.607 183.607 108.554 183.629 108.515 183.668C108.476 183.707 108.454 183.76 108.454 183.816C108.447 187.502 108.449 192.222 108.46 197.977C108.473 204.668 106.879 210.844 103.677 216.506C101.295 220.711 98.1668 224.257 94.2918 227.144C91.182 229.463 88.3164 231.215 84.6759 232.257C82.633 232.841 80.1593 233.385 77.2547 233.888C76.484 234.023 75.7112 234.036 74.9362 233.927C74.8764 233.918 74.822 233.888 74.7826 233.843C74.7432 233.797 74.7214 233.74 74.7213 233.68V183.803C74.7214 183.765 74.7328 183.729 74.7538 183.698C74.7747 183.668 74.8043 183.645 74.8385 183.633C75.0643 183.547 75.4919 183.503 76.1215 183.503C88.1135 183.523 98.7551 183.535 108.047 183.539C108.125 183.539 108.2 183.508 108.256 183.452C108.312 183.397 108.343 183.321 108.343 183.243L108.359 149.364Z" fill="#1B1B1A"/>
</svg>
