<svg xmlns="http://www.w3.org/2000/svg" width="1024" height="1024" version="1.1" class="icon">
        <path id="svg_1" fill="#212121"
              d="m853.66669,0a170.33334,170.33334 0 0 1 170.33334,170.33334l0,681.33335a170.33334,170.33334 0 0 1 -170.33334,170.33334l-681.33335,0a170.33334,170.33334 0 0 1 -170.33334,-170.33334l0,-681.33335a170.33334,170.33334 0 0 1 170.33334,-170.33334l681.33335,0zm-86.87,282.18556l-367.35223,367.35224l-140.24112,-140.24112a42.58333,42.58333 0 0 0 -60.18445,60.18445l170.33334,170.33334a42.58333,42.58333 0 0 0 60.18445,0l397.44446,-397.44446a42.58333,42.58333 0 0 0 -60.18445,-60.18445z"/>
</svg>
